<?xml version="1.0" standalone="no"?>
<!DOCTYPE svg PUBLIC "-//W3C//DTD SVG 20010904//EN"
 "http://www.w3.org/TR/2001/REC-SVG-20010904/DTD/svg10.dtd">
<svg version="1.0" xmlns="http://www.w3.org/2000/svg"
 width="800.000000pt" height="147.000000pt" viewBox="0 0 800.000000 147.000000"
 preserveAspectRatio="xMidYMid meet">

<g transform="translate(0.000000,147.000000) scale(0.100000,-0.100000)"
fill="#000000" stroke="none">
<path d="M90 890 l0 -280 475 0 476 0 -3 -92 -3 -93 -410 -5 c-386 -5 -412 -6
-443 -25 -39 -24 -78 -78 -87 -123 l-7 -32 561 0 c309 0 564 0 569 0 4 0 7
125 7 278 l0 277 -472 3 -473 2 0 90 0 90 378 0 c207 0 394 4 415 9 78 18 132
73 151 154 l6 27 -570 0 -570 0 0 -280z"/>
<path d="M1414 1157 c-3 -8 -4 -49 -2 -93 l3 -79 465 -3 c298 -1 483 1 514 8
63 13 113 51 137 104 38 83 89 76 -546 76 -463 0 -567 -2 -571 -13z"/>
<path d="M2730 1150 c0 -57 68 -141 128 -157 15 -5 98 -8 185 -8 132 0 158 -2
162 -15 3 -9 4 -176 2 -373 l-2 -357 95 0 95 0 0 370 0 370 165 3 c144 2 169
5 199 22 47 28 91 85 98 128 l6 37 -567 0 c-562 0 -566 0 -566 -20z"/>
<path d="M4050 1152 c0 -36 46 -107 88 -137 l44 -30 376 -3 c436 -4 484 -1
540 35 45 29 82 87 82 127 l0 26 -565 0 c-536 0 -565 -1 -565 -18z"/>
<path d="M5372 1078 l3 -93 495 0 c483 0 496 1 535 21 46 24 92 84 101 132 l7
32 -572 0 -572 0 3 -92z"/>
<path d="M6700 705 l0 -465 95 0 95 0 0 465 0 465 -95 0 -95 0 0 -465z"/>
<path d="M7310 935 l-235 -236 235 -229 235 -229 140 -1 140 0 -233 233 -232
232 197 197 c109 108 214 213 232 232 l35 36 -140 0 -139 0 -235 -235z"/>
<path d="M1414 786 c-3 -8 -4 -104 -2 -213 3 -183 5 -201 25 -240 15 -26 39
-52 67 -68 l44 -26 444 3 445 3 37 29 c37 28 75 93 76 129 0 16 -27 17 -430
17 -479 0 -488 1 -509 60 -6 19 -11 95 -11 176 l0 144 -90 0 c-69 0 -92 -3
-96 -14z"/>
<path d="M4050 782 c0 -35 50 -117 87 -142 l37 -25 428 -3 c404 -2 431 -2 472
17 53 23 96 77 103 131 l6 40 -567 0 c-539 0 -566 -1 -566 -18z"/>
<path d="M5374 786 c-3 -8 -4 -106 -2 -218 3 -204 3 -205 31 -246 15 -23 45
-51 67 -62 38 -19 58 -20 470 -20 403 0 433 1 468 19 46 23 67 46 87 94 30 72
62 67 -414 67 -287 0 -438 4 -460 11 -53 18 -61 49 -61 219 l0 150 -90 0 c-69
0 -92 -3 -96 -14z"/>
<path d="M4050 403 c1 -36 39 -101 76 -129 l37 -29 446 -3 446 -3 41 27 c45
29 73 68 84 120 l8 34 -569 0 c-535 0 -569 -1 -569 -17z"/>
</g>
</svg>
